<svg width="100" height="100" viewBox="0 0 100 100" xmlns="http://www.w3.org/2000/svg">
  <g opacity="0.1">
    <path d="M50 30C55.5 30 60 25.5 60 20C60 14.5 55.5 10 50 10C44.5 10 40 14.5 40 20C40 25.5 44.5 30 50 30Z" fill="#FF6B98"/>
    <path d="M70 50C75.5 50 80 45.5 80 40C80 34.5 75.5 30 70 30C64.5 30 60 34.5 60 40C60 45.5 64.5 50 70 50Z" fill="#9D71E8"/>
    <path d="M50 70C55.5 70 60 65.5 60 60C60 54.5 55.5 50 50 50C44.5 50 40 54.5 40 60C40 65.5 44.5 70 50 70Z" fill="#5CBA9A"/>
    <path d="M30 50C35.5 50 40 45.5 40 40C40 34.5 35.5 30 30 30C24.5 30 20 34.5 20 40C20 45.5 24.5 50 30 50Z" fill="#FFD166"/>
    <circle cx="50" cy="40" r="5" fill="#FF6B98"/>
  </g>
</svg>
